<svg width="30" height="30" viewBox="0 0 30 30" fill="none" xmlns="http://www.w3.org/2000/svg">
<g clip-path="url(#clip0_85_344)">
<path d="M16.25 2.8125C9.51979 2.8125 4.0625 8.26979 4.0625 15H0L5.26771 20.2677L5.3625 20.4573L10.8333 15H6.77083C6.77083 9.75938 11.0094 5.52083 16.25 5.52083C21.4906 5.52083 25.7292 9.75938 25.7292 15C25.7292 20.2406 21.4906 24.4792 16.25 24.4792C13.6365 24.4792 11.2667 23.4094 9.56042 21.6896L7.6375 23.6125C9.84479 25.8198 12.8781 27.1875 16.25 27.1875C22.9802 27.1875 28.4375 21.7302 28.4375 15C28.4375 8.26979 22.9802 2.8125 16.25 2.8125ZM14.8958 9.58333V16.3542L20.6917 19.7937L21.6667 18.1552L16.9271 15.3385V9.58333H14.8958Z" fill="white"/>
</g>
<defs>
<clipPath id="clip0_85_344">
<rect width="30" height="30" fill="white"/>
</clipPath>
</defs>
</svg>
